<svg width="16" height="16" viewBox="0 0 16 16" fill="none" xmlns="http://www.w3.org/2000/svg">
<path d="M15.75 7.98438C15.75 3.73438 12.25 0.234375 8 0.234375C3.71875 0.234375 0.25 3.73438 0.25 7.98438C0.25 12.2656 3.71875 15.7344 8 15.7344C12.25 15.7344 15.75 12.2656 15.75 7.98438ZM7.09375 12.1094C6.90625 12.2969 6.5625 12.2969 6.375 12.1094L3.125 8.85938C2.9375 8.67188 2.9375 8.32812 3.125 8.14062L3.84375 7.45312C4.03125 7.23438 4.34375 7.23438 4.53125 7.45312L6.75 9.64062L11.4375 4.95312C11.625 4.73438 11.9375 4.73438 12.125 4.95312L12.8438 5.64062C13.0312 5.82812 13.0312 6.17188 12.8438 6.35938L7.09375 12.1094Z" fill="#00A859"/>
</svg>
